Coordinates
version=1
nRows=36
nColumns=38
inDegrees=no

Units are S.I. units (second, meters, Newtons, ...)
If the header above contains a line with 'inDegrees', this indicates whether rotational values are in degrees (yes) or radians (no).

endheader
time	pelvis_tilt	pelvis_list	pelvis_rotation	pelvis_tx	pelvis_ty	pelvis_tz	hip_flexion_r	hip_adduction_r	hip_rotation_r	knee_angle_r	ankle_angle_r	subtalar_angle_r	mtp_angle_r	hip_flexion_l	hip_adduction_l	hip_rotation_l	knee_angle_l	ankle_angle_l	subtalar_angle_l	mtp_angle_l	lumbar_extension	lumbar_bending	lumbar_rotation	arm_flex_r	arm_add_r	arm_rot_r	elbow_flex_r	pro_sup_r	wrist_flex_r	wrist_dev_r	arm_flex_l	arm_add_l	arm_rot_l	elbow_flex_l	pro_sup_l	wrist_flex_l	wrist_dev_l
1.46	0.153891	1.37533	-1.74448	0.904264	-0.0562966	0.967732	0.351308	-0.116679	-0.0377579	1.20612	-0.13562	0	0	-0.221475	0.120959	-0.158027	0.127865	0.0778349	0	0	-0.270086	-0.0612063	-0.14805	-0.202277	-0.00704182	-0.660401	0.251673	1.27824	0	0	-0.0230571	-0.40291	0.598366	0.723687	0.668694	0	0
1.47	0.140644	1.37618	-1.72395	0.905005	-0.0642147	0.967746	0.356903	-0.112764	-0.0400696	1.17029	-0.125329	0	0	-0.235588	0.118018	-0.147262	0.118516	0.0794118	0	0	-0.270077	-0.057025	-0.154196	-0.199117	-0.00568336	-0.655585	0.252295	1.2761	0	0	-0.0130176	-0.405315	0.601409	0.724521	0.675441	0	0
1.48	0.129156	1.37689	-1.70575	0.905681	-0.0720722	0.967636	0.361188	-0.109574	-0.0428808	1.13201	-0.114773	0	0	-0.249483	0.115319	-0.137101	0.109661	0.0814333	0	0	-0.270391	-0.0533373	-0.159367	-0.195209	-0.00462783	-0.651381	0.251518	1.27425	0	0	-0.0026905	-0.407308	0.604696	0.724996	0.682315	0	0
1.49	0.105732	1.37742	-1.68026	0.907356	-0.0796747	0.967438	0.365879	-0.11707	-0.046205	1.08955	-0.0970778	0	0	-0.263027	0.115792	-0.120915	0.102668	0.0799636	0	0	-0.271375	-0.0460164	-0.161327	-0.189785	-0.00625381	-0.646389	0.250254	1.27155	0	0	0.00839816	-0.406979	0.609528	0.72444	0.687604	0	0
1.5	0.0963899	1.37817	-1.66576	0.908008	-0.0874785	0.967136	0.367633	-0.115785	-0.052084	1.04668	-0.0871903	0	0	-0.276834	0.113552	-0.111266	0.093656	0.081542	0	0	-0.271584	-0.0428688	-0.164158	-0.185463	-0.00578053	-0.640764	0.248263	1.26664	0	0	0.020802	-0.4076	0.614858	0.722439	0.69156	0	0
1.51	0.0870145	1.37903	-1.65179	0.908336	-0.0954629	0.966689	0.368231	-0.114658	-0.0594459	1.00178	-0.0778809	0	0	-0.290401	0.111397	-0.101969	0.0846108	0.08287	0	0	-0.271618	-0.0397548	-0.166487	-0.18088	-0.00549666	-0.634679	0.246727	1.26067	0	0	0.0325184	-0.40701	0.61729	0.719464	0.697133	0	0
1.52	0.0778938	1.38027	-1.63851	0.908802	-0.103387	0.966101	0.367885	-0.113509	-0.0685785	0.95489	-0.0687583	0	0	-0.303521	0.10917	-0.0933252	0.0754939	0.0846338	0	0	-0.271345	-0.0364982	-0.168139	-0.176947	-0.0054543	-0.626598	0.246428	1.25362	0	0	0.0452314	-0.406089	0.623168	0.714624	0.701259	0	0
1.53	0.0693174	1.38158	-1.62603	0.909141	-0.11139	0.965397	0.366446	-0.112518	-0.0798801	0.906266	-0.06064	0	0	-0.316252	0.107028	-0.0855584	0.0668511	0.086663	0	0	-0.271143	-0.0333294	-0.169157	-0.173288	-0.00554137	-0.617363	0.246644	1.24594	0	0	0.0591544	-0.40512	0.632866	0.708881	0.702005	0	0
1.54	0.0608846	1.38275	-1.61399	0.90938	-0.119443	0.964603	0.363884	-0.111452	-0.0933226	0.856374	-0.0542519	0	0	-0.328961	0.104775	-0.0785784	0.058691	0.0887673	0	0	-0.271035	-0.0302889	-0.16985	-0.169747	-0.00561521	-0.607606	0.247239	1.23724	0	0	0.0730172	-0.403779	0.643321	0.702777	0.700429	0	0
1.55	0.0639871	1.38407	-1.60762	0.908726	-0.127774	0.963673	0.359439	-0.100438	-0.104607	0.807645	-0.0568284	0	0	-0.341688	0.0984678	-0.0779063	0.049279	0.0942782	0	0	-0.270406	-0.0305445	-0.173546	-0.167972	-0.00318678	-0.597138	0.247832	1.22708	0	0	0.0872614	-0.403876	0.653917	0.696714	0.69832	0	0
1.56	0.0521233	1.38487	-1.59256	0.908827	-0.135996	0.962742	0.354886	-0.0990593	-0.121887	0.756038	-0.0521018	0	0	-0.354763	0.0950608	-0.071064	0.0419328	0.0964053	0	0	-0.270463	-0.0270219	-0.174024	-0.164621	-0.00323755	-0.586529	0.249247	1.21618	0	0	0.0997341	-0.402444	0.664733	0.691252	0.695348	0	0
1.57	0.0387989	1.38582	-1.5769	0.908787	-0.144358	0.961697	0.349963	-0.0968776	-0.140467	0.704416	-0.0484118	0	0	-0.367476	0.0913876	-0.0656415	0.0351837	0.0991868	0	0	-0.270017	-0.0234643	-0.173765	-0.161496	-0.00347266	-0.575578	0.250758	1.20442	0	0	0.111206	-0.400748	0.675719	0.68599	0.690043	0	0
1.58	0.024134	1.38724	-1.56033	0.908619	-0.152814	0.960517	0.345171	-0.0939521	-0.160828	0.653362	-0.0446427	0	0	-0.378946	0.0874622	-0.0618873	0.0297168	0.102821	0	0	-0.268923	-0.0199	-0.173096	-0.158529	-0.00375519	-0.563421	0.252108	1.19151	0	0	0.122103	-0.398958	0.686549	0.68103	0.684767	0	0
1.59	0.00636278	1.38888	-1.54067	0.908359	-0.161326	0.959257	0.339937	-0.0897468	-0.182492	0.602614	-0.0405958	0	0	-0.389223	0.08279	-0.0591792	0.0259533	0.107335	0	0	-0.267605	-0.0158607	-0.173616	-0.155007	-0.00415443	-0.550003	0.253205	1.17867	0	0	0.130474	-0.39659	0.690974	0.676614	0.684179	0	0
1.6	-0.0136809	1.39061	-1.51895	0.907965	-0.169955	0.957919	0.334231	-0.0841504	-0.205114	0.55244	-0.0359072	0	0	-0.398476	0.0775401	-0.0579345	0.0240511	0.112853	0	0	-0.266028	-0.0116342	-0.17413	-0.151025	-0.00412695	-0.54174	0.253609	1.17158	0	0	0.137508	-0.394169	0.693114	0.672865	0.685298	0	0
1.61	-0.0295033	1.39376	-1.50298	0.907335	-0.178736	0.956371	0.331003	-0.0783971	-0.226431	0.505794	-0.0294148	0	0	-0.40529	0.0735431	-0.0590184	0.0240456	0.11927	0	0	-0.262733	-0.0089765	-0.173675	-0.147139	-0.00366059	-0.53657	0.253669	1.16757	0	0	0.142907	-0.392112	0.693731	0.67076	0.686492	0	0
1.62	-0.0495292	1.39648	-1.4829	0.906592	-0.187618	0.954835	0.326224	-0.0707389	-0.246815	0.458899	-0.0223777	0	0	-0.411437	0.0687041	-0.0610653	0.025978	0.126316	0	0	-0.259687	-0.00569498	-0.173259	-0.143226	-0.00315934	-0.531955	0.25331	1.16442	0	0	0.147675	-0.38987	0.694351	0.667778	0.688402	0	0
1.63	-0.0741354	1.39876	-1.45821	0.905751	-0.196584	0.953324	0.319831	-0.0609356	-0.265143	0.411511	-0.0149921	0	0	-0.416534	0.0628042	-0.0642703	0.0308917	0.134608	0	0	-0.256961	-0.00170805	-0.172976	-0.13941	-0.00277091	-0.526289	0.252585	1.16112	0	0	0.151833	-0.38777	0.695309	0.664667	0.690576	0	0
1.64	-0.102031	1.40069	-1.43047	0.904788	-0.205678	0.95183	0.312055	-0.0491413	-0.280127	0.363764	-0.0079416	0	0	-0.420528	0.0560941	-0.0693393	0.0389255	0.144645	0	0	-0.254561	0.00263904	-0.172999	-0.135732	-0.00245713	-0.519746	0.252032	1.15763	0	0	0.154688	-0.386401	0.695647	0.663235	0.692745	0	0
1.65	-0.132161	1.40231	-1.40047	0.903752	-0.214898	0.950344	0.302627	-0.0355457	-0.290573	0.31489	-0.00247968	0	0	-0.423782	0.0490173	-0.075231	0.0487944	0.15539	0	0	-0.252464	0.00736188	-0.172692	-0.132889	-0.00210503	-0.513913	0.252493	1.15348	0	0	0.156978	-0.384851	0.695046	0.662443	0.695051	0	0
1.66	-0.164248	1.40309	-1.36832	0.902662	-0.224287	0.948932	0.290336	-0.0200332	-0.294725	0.263795	-0.000528678	0	0	-0.42713	0.0413212	-0.0822189	0.0603392	0.166537	0	0	-0.250874	0.0125701	-0.172103	-0.131011	-0.00191566	-0.508212	0.253671	1.14725	0	0	0.158333	-0.38224	0.690928	0.661502	0.698865	0	0
1.67	-0.194368	1.40349	-1.33782	0.901566	-0.233881	0.94753	0.276695	-0.00428518	-0.292552	0.213247	-0.00174903	0	0	-0.430618	0.0337033	-0.0894034	0.0727219	0.177359	0	0	-0.249209	0.0175123	-0.17184	-0.12981	-0.00195418	-0.502695	0.254606	1.14042	0	0	0.158215	-0.378993	0.683478	0.660542	0.705237	0	0
1.68	-0.218847	1.40381	-1.31234	0.900547	-0.243664	0.946139	0.262823	0.0100143	-0.285783	0.165978	-0.00521991	0	0	-0.43424	0.0268007	-0.0956202	0.0856483	0.187439	0	0	-0.247504	0.0215753	-0.172175	-0.129115	-0.00218323	-0.497302	0.255027	1.13395	0	0	0.158029	-0.3766	0.67893	0.659825	0.712196	0	0
1.69	-0.236636	1.40426	-1.29273	0.899655	-0.253626	0.944777	0.249744	0.0218795	-0.276758	0.124469	-0.00962671	0	0	-0.43785	0.0207785	-0.100909	0.0989804	0.196214	0	0	-0.245638	0.0246357	-0.173149	-0.128828	-0.00264744	-0.492264	0.255305	1.12795	0	0	0.158004	-0.375001	0.678236	0.659371	0.717623	0	0
1.7	-0.249662	1.40456	-1.27715	0.89886	-0.263757	0.943518	0.237326	0.0315774	-0.265865	0.0895145	-0.0138896	0	0	-0.441439	0.0150778	-0.105939	0.113188	0.203914	0	0	-0.243777	0.0271121	-0.175084	-0.128951	-0.0032913	-0.487149	0.255877	1.12154	0	0	0.157457	-0.37393	0.679527	0.6591	0.721698	0	0
1.71	-0.256239	1.40499	-1.26757	0.898138	-0.27405	0.942368	0.22699	0.038322	-0.255925	0.0643853	-0.0148902	0	0	-0.444792	0.010041	-0.110437	0.128238	0.210276	0	0	-0.241815	0.0285948	-0.17771	-0.129313	-0.00401913	-0.482912	0.255702	1.1166	0	0	0.156178	-0.373197	0.681566	0.659076	0.72421	0	0
1.72	-0.257373	1.40535	-1.26288	0.897501	-0.284498	0.941369	0.218591	0.0423408	-0.247654	0.0500186	-0.0122209	0	0	-0.447792	0.00524299	-0.114767	0.144597	0.215506	0	0	-0.239936	0.0294454	-0.180757	-0.130141	-0.00485263	-0.478671	0.254935	1.11207	0	0	0.153895	-0.371811	0.681276	0.658808	0.726941	0	0
1.73	-0.257033	1.40591	-1.25934	0.896907	-0.295098	0.940496	0.213236	0.0445925	-0.242791	0.0474068	-0.00658827	0	0	-0.449983	0.000181692	-0.118715	0.162198	0.219338	0	0	-0.237637	0.0302358	-0.18395	-0.131407	-0.00581009	-0.475435	0.254234	1.10689	0	0	0.150857	-0.370072	0.680145	0.658195	0.730421	0	0
1.74	-0.25786	1.40645	-1.25422	0.896293	-0.305924	0.939778	0.209869	0.0461099	-0.239712	0.0543267	-0.00099235	0	0	-0.45124	-0.00614617	-0.121911	0.18224	0.222588	0	0	-0.234846	0.0314106	-0.187307	-0.133319	-0.0067584	-0.473081	0.253219	1.10146	0	0	0.146851	-0.368429	0.679229	0.657582	0.734117	0	0
1.75	-0.262602	1.40699	-1.24474	0.895695	-0.316997	0.939199	0.207482	0.0477914	-0.236877	0.0678565	0.00142415	0	0	-0.451139	-0.013978	-0.125521	0.20472	0.225319	0	0	-0.231233	0.0334484	-0.191243	-0.135876	-0.00789357	-0.471353	0.252249	1.09583	0	0	0.14124	-0.366601	0.67756	0.657086	0.737238	0	0
1.76	-0.272474	1.40809	-1.22928	0.8952	-0.328339	0.93869	0.205764	0.0499232	-0.233994	0.08481	0.000148068	0	0	-0.449166	-0.0229257	-0.129394	0.228637	0.226655	0	0	-0.226085	0.0365087	-0.196249	-0.139239	-0.00944619	-0.469601	0.250894	1.09091	0	0	0.133584	-0.364264	0.673622	0.656824	0.74031	0	0
1.77	-0.284402	1.40956	-1.21082	0.894797	-0.340004	0.938255	0.20345	0.0523464	-0.232264	0.101128	-0.00188202	0	0	-0.445522	-0.0327953	-0.131938	0.254835	0.226522	0	0	-0.219516	0.040103	-0.202129	-0.143843	-0.0110984	-0.468495	0.250279	1.08653	0	0	0.124261	-0.361739	0.668048	0.656841	0.744515	0	0
1.78	-0.296711	1.41114	-1.19121	0.894442	-0.351968	0.937899	0.199113	0.0553582	-0.230431	0.112939	-0.00352643	0	0	-0.440275	-0.0433544	-0.133353	0.283697	0.22463	0	0	-0.211948	0.0439076	-0.208545	-0.149452	-0.0126747	-0.468624	0.250182	1.08204	0	0	0.113705	-0.358992	0.661685	0.657088	0.748973	0	0
1.79	-0.311319	1.41281	-1.16888	0.894042	-0.364134	0.937623	0.192913	0.0595198	-0.228935	0.118628	-0.00917806	0	0	-0.432807	-0.0549998	-0.135224	0.315936	0.220959	0	0	-0.203374	0.0480066	-0.215108	-0.155742	-0.0141235	-0.469968	0.250234	1.07773	0	0	0.102121	-0.356137	0.654857	0.657428	0.753055	0	0
1.8	-0.331387	1.41473	-1.14129	0.89353	-0.376403	0.937428	0.185868	0.0647021	-0.228209	0.119207	-0.0233711	0	0	-0.422317	-0.0681005	-0.138097	0.352191	0.21489	0	0	-0.194117	0.0527111	-0.220831	-0.163049	-0.015336	-0.472223	0.251798	1.07396	0	0	0.089933	-0.353101	0.647223	0.657989	0.756806	0	0
1.81	-0.361867	1.41626	-1.10461	0.892776	-0.388575	0.937421	0.179732	0.0709666	-0.228485	0.119836	-0.0447813	0	0	-0.408453	-0.0831899	-0.142734	0.393186	0.205963	0	0	-0.184897	0.0588624	-0.224621	-0.170027	-0.0166184	-0.475105	0.253488	1.07033	0	0	0.0778467	-0.349654	0.639271	0.658074	0.760391	0	0
